<?xml version="1.0" encoding="UTF-8"?>
<!-- Generator: Adobe Illustrator 26.1.0, SVG Export Plug-In . SVG Version: 6.00 Build 0)  -->
<svg xmlns="http://www.w3.org/2000/svg" xmlns:xlink="http://www.w3.org/1999/xlink" version="1.1" id="Layer_1" x="0px" y="0px" viewBox="0 0 289.8 86.1" style="enable-background:new 0 0 289.8 86.1;" xml:space="preserve">
<style type="text/css">
	.st0{fill-rule:evenodd;clip-rule:evenodd;fill:#221F20;}
	.st1{fill:#221F20;}
	.st2{font-family:'MyriadPro-Regular';}
	.st3{font-size:15.7915px;}
</style>
<g id="Layer_x0020_1">
	<g id="_2074240890144">
		<g>
			<path class="st0" d="M123.5,26.3l0.9-2.4h9.3l0.8,2.4H123.5z M149.2,67.5l0.9,2.4h-9.8l-0.8-2.4H149.2z M107.5,69.9l0.9-2.4h9.5     l-0.8,2.4H107.5z M128.8,35.6l-0.1,0.3h-8.8l0.9-2.4h16.4l0.9,2.4h-9l-0.1-0.3H128.8z M127.9,38.3l-0.9,2.4h-9l0.9-2.4H127.9z      M126.2,43.1l-0.9,2.4h-9.1l0.9-2.4H126.2z M124.5,47.9l-0.8,2.4h-9.2l0.9-2.4H124.5z M139,38.3l0.9,2.4h-9.1l-0.8-2.4H139z      M140.7,43.1l0.9,2.4h-9.3l-0.8-2.4H140.7z M142.5,47.9l0.9,2.4H134l-0.8-2.4H142.5z M121.7,31.1l0.9-2.4h12.8l0.9,2.4H121.7z      M109.1,64.7l0.9-2.4h9.5l-0.9,2.4H109.1z M110.9,59.9l0.9-2.4h34.3l0.9,2.4h-9.6h-17H110.9z M112.7,55.1l0.9-2.4h30.7l0.9,2.4     H112.7z M147.8,62.3l0.9,2.4h-9.8l-0.8-2.4H147.8z M192.6,69.9v-2.4h33.1v2.4H192.6z M192.6,64.7v-2.4h33.1v2.4H192.6z      M192.6,59.9v-2.4h9.6v2.4H192.6z M192.6,55.1v-2.4h9.6v2.4H192.6z M192.6,50.3v-2.4h31.4v2.4H192.6z M192.6,45.5v-2.4h31.4v2.4     H192.6z M192.6,40.7v-2.4h9.6v2.4H192.6z M192.6,35.9v-2.4h9.6v2.4H192.6z M192.6,31.1v-2.4h32.7v2.4H192.6z M192.6,26.3v-2.4     h32.7v2.4H192.6z M154,69.9v-2.4h9.6v2.4H154z M163.6,33.5v2.4H154v-2.4H163.6z M163.6,38.3v2.4H154v-2.4H163.6z M176.5,40.7     c0.5-0.7,0.8-1.6,0.9-2.4h9.7c-0.1,0.8-0.2,1.6-0.3,2.4H176.5z M185.9,43.1c-0.4,0.8-0.9,1.6-1.4,2.4H154v-2.4H185.9z      M181.9,47.9c-1.6,1.2-3.6,2-6,2.4H154v-2.4H181.9z M177.1,35.9c-0.3-0.9-0.9-1.8-1.6-2.4h10.9c0.3,0.8,0.4,1.6,0.5,2.4H177.1z      M154,64.7v-2.4h9.6v2.4H154z M154,59.9v-2.4h9.6v2.4H154z M154,55.1v-2.4h9.6v2.4H154z M154,31.1v-2.4h29.5     c0.7,0.7,1.3,1.5,1.8,2.4H154z M154,26.3v-2.4h19.7c2.6,0,5.4,1.1,6.7,2.4H154z M94.1,69.9v-2.4h9.6c0,0.8,0,1.6,0,2.4H94.1z      M103.7,62.3v2.4h-9.6c0-0.8,0-1.6,0-2.4H103.7z M103.7,57.5v2.4h-9.6c0-0.8,0-1.6,0-2.4H103.7z M103.7,52.7v2.4h-9.6     c0-0.8,0-1.6,0-2.4H103.7z M103.7,38.3v2.4h-9.6c0-0.8,0-1.6,0-2.4H103.7z M103.7,33.5v2.4h-9.6c0-0.8,0-1.6,0-2.4H103.7z      M103.7,28.7v2.4h-9.6c0-0.8,0-1.6,0-2.4H103.7z M66.8,31.1v-2.4h9.6c0,0.8,0,1.6,0,2.4H66.8z M66.8,35.9v-2.4h9.6     c0,0.9,0,1.6,0,2.4H66.8z M66.8,40.7v-2.4h9.6c0,0.9,0,1.6,0,2.4H66.8z M66.8,50.3v-2.4h7.3h2.4h17.7H98h5.8v2.4H98h-3.8H76.5     h-2.4H66.8z M66.8,55.1v-2.4h9.6c0,0.8,0,1.6,0,2.4H66.8z M66.8,59.9v-2.4h9.6c0,0.8,0,1.6,0,2.4H66.8z M66.8,64.7v-2.4h9.6     c0,0.8,0,1.6,0,2.4H66.8z M98,45.5h-3.8H76.5h-2.4h-7.3v-2.4h7.3h2.4h17.7H98h5.8v2.4H98z M66.8,69.9v-2.4h9.6c0,0.8,0,1.6,0,2.4     H66.8z M94.1,26.1v-2.4h9.6c0,0.9,0,1.6,0,2.4H94.1z M66.8,26.1v-2.4h9.6c0,0.9,0,1.6,0,2.4H66.8z M243,57.5     c0,0.9,0.1,1.6,0.2,2.4h-13.4c-0.1-0.8-0.1-1.6-0.1-2.4H243z M243.8,62.3c0.4,0.9,0.8,1.7,1.4,2.4h-14.5     c-0.3-0.8-0.5-1.6-0.6-2.4H243.8z M248.5,67.3c2.3,1.2,5.1,1.8,8.3,1.8c3.2,0,6-0.6,8.5-1.8c0,0,0.1,0,0.1-0.1h15.4     c-0.3,0.8-0.8,1.6-1.2,2.4h-46.4c-0.5-0.8-1-1.6-1.4-2.4H248.5z M268.2,64.7c0.4-0.7,0.6-1.5,0.7-2.4h13.2     c-0.1,0.8-0.3,1.6-0.5,2.4H268.2z M268.9,59.9c-0.2-0.9-0.5-1.7-1.1-2.4h14.4c0.1,0.7,0.1,1.4,0.1,2.2c0,0.1,0,0.1,0,0.2H268.9z      M264.8,55.1c-0.4-0.2-0.9-0.4-1.3-0.6c-1.6-0.7-3.4-1.2-5.4-1.8H281c0.3,0.8,0.6,1.6,0.8,2.4H264.8z M248.8,50.3     c-0.9-0.3-1.7-0.5-2.5-0.8c-1.2-0.4-2.3-0.8-3.3-1.1c-0.4-0.2-0.8-0.3-1.1-0.5h35.9c0.7,0.7,1.3,1.5,1.9,2.4H248.8z M237.9,45.5     c-0.1-0.1-0.3-0.2-0.4-0.3c-0.8-0.6-1.5-1.3-2.2-2.1h35c0.6,0.2,1.3,0.5,1.9,0.8c0.9,0.5,1.8,1,2.6,1.6H237.9z M233.7,40.7     c-0.1-0.2-0.2-0.4-0.3-0.6c-0.3-0.6-0.5-1.2-0.7-1.8h20.6c0.2,0.1,0.4,0.1,0.6,0.2l8.1,2.2H233.7z M232,35.9     c-0.1-0.8-0.2-1.6-0.2-2.4h13.6c0.1,0.4,0.3,0.7,0.5,1c0.3,0.5,0.8,0.9,1.4,1.4H232z M231.8,31.1c0.1-0.8,0.2-1.6,0.3-2.4h13.5     c-0.3,0.7-0.5,1.5-0.6,2.4H231.8z M233,26.1c0.2-0.6,0.5-1.1,0.8-1.6c0.1-0.3,0.3-0.5,0.5-0.8h43.5c0.2,0.3,0.4,0.6,0.5,0.9     c0.3,0.5,0.5,1,0.7,1.5h-16.2c-2.1-1.2-4.8-1.7-8.1-1.7c-1.6,0-3.1,0.2-4.5,0.7c-0.8,0.3-1.4,0.6-2.1,1H233z M235.9,21.3     c0.8-0.9,1.6-1.7,2.5-2.4h35.1c0.9,0.7,1.7,1.5,2.5,2.4H235.9z M242.2,16.5c1.4-0.7,2.9-1.2,4.5-1.7c1-0.3,2-0.5,3-0.7h12     c1,0.2,2.1,0.4,3.1,0.7c1.7,0.4,3.3,1,4.8,1.7H242.2z M279.7,28.7c0.2,0.8,0.3,1.6,0.4,2.4h-13.5c-0.2-0.6-0.3-1.1-0.6-1.6     c-0.1-0.3-0.3-0.5-0.5-0.8H279.7z M280.2,33.5c0,0.9,0,2.1,0,2.4h-13.3c0-0.3,0-1.5,0-2.4H280.2z M277.9,72.1     c-0.8,0.9-1.6,1.7-2.5,2.4h-37.5c0,0,0,0-0.1,0c-1-0.7-1.8-1.5-2.7-2.4H277.9z M271.5,76.9c-0.3,0.1-0.7,0.3-1,0.5     c-1.9,0.9-4.1,1.5-6.4,1.9H249c-1-0.2-1.9-0.4-2.8-0.7c-1.6-0.5-3.1-1-4.5-1.7H271.5z M20.8,57.6c0,0.9,0.1,1.6,0.2,2.4H7.6     c-0.1-0.8-0.1-1.6-0.1-2.4H20.8z M21.6,62.4c0.4,0.9,0.8,1.7,1.4,2.4H8.5c-0.3-0.8-0.5-1.6-0.6-2.4H21.6z M26.3,67.4     c2.3,1.2,5.1,1.8,8.3,1.8c3.2,0,6-0.6,8.5-1.8c0,0,0.1,0,0.1-0.1h15.4c-0.3,0.8-0.7,1.6-1.2,2.4H11c-0.5-0.8-1-1.6-1.4-2.4H26.3z      M46,64.8c0.4-0.7,0.6-1.5,0.7-2.4H60c-0.1,0.8-0.3,1.6-0.5,2.4H46z M46.7,60c-0.2-0.9-0.5-1.7-1.1-2.4H60     c0.1,0.7,0.1,1.4,0.1,2.2c0,0.1,0,0.2,0,0.3H46.7z M42.6,55.2c-0.4-0.2-0.9-0.4-1.3-0.6c-1.6-0.7-3.4-1.2-5.4-1.8h22.9     c0.3,0.7,0.6,1.6,0.8,2.4H42.6z M26.6,50.4c-0.9-0.3-1.7-0.5-2.5-0.8c-1.2-0.4-2.3-0.8-3.3-1.2c-0.4-0.1-0.8-0.3-1.1-0.5h35.9     c0.7,0.7,1.3,1.5,1.9,2.4H26.6z M15.7,45.6c-0.1-0.1-0.3-0.2-0.4-0.3c-0.8-0.6-1.5-1.3-2.2-2.1h35c0.6,0.3,1.3,0.5,1.9,0.9     c0.9,0.5,1.8,1,2.7,1.6H15.7z M11.5,40.8c-0.1-0.2-0.3-0.4-0.3-0.7c-0.3-0.5-0.5-1.1-0.7-1.8H31c0.2,0.1,0.4,0.1,0.6,0.2l8.2,2.2     H11.5z M9.8,36c-0.1-0.8-0.2-1.6-0.3-2.4h13.6c0.1,0.4,0.3,0.7,0.5,1c0.3,0.5,0.8,0.9,1.4,1.3H9.8z M9.6,31.2     c0.1-0.8,0.2-1.6,0.3-2.4h13.5c-0.3,0.7-0.5,1.5-0.6,2.4H9.6z M10.7,26.2c0.2-0.5,0.5-1.1,0.8-1.6c0.1-0.3,0.3-0.5,0.5-0.7h43.5     c0.2,0.3,0.3,0.6,0.5,0.9c0.3,0.5,0.5,1,0.7,1.5H40.4c-2.1-1.1-4.8-1.7-8.1-1.7c-1.6,0-3.1,0.3-4.5,0.7c-0.8,0.3-1.4,0.6-2.1,1     H10.7z M13.7,21.4c0.8-0.9,1.6-1.7,2.5-2.4h35.1c0.9,0.7,1.7,1.5,2.5,2.4H13.7z M20,16.6c1.4-0.7,2.9-1.3,4.5-1.7     c1-0.3,2-0.5,3-0.7h12c1,0.2,2.1,0.4,3.1,0.7c1.7,0.5,3.3,1,4.8,1.8H20z M57.5,28.8c0.2,0.8,0.3,1.6,0.4,2.4H44.4     c-0.2-0.6-0.3-1.1-0.6-1.6c-0.1-0.3-0.3-0.5-0.5-0.8H57.5z M58,33.6c0,0.9,0,2.1,0,2.4H44.7c0-0.3,0-1.5,0-2.4H58z M55.6,72.2     c-0.8,0.9-1.6,1.7-2.5,2.4H15.6c0,0,0,0-0.1,0c-1-0.7-1.8-1.5-2.7-2.4H55.6z M49.3,77c-0.3,0.2-0.7,0.3-1,0.5     c-1.9,0.9-4.1,1.5-6.4,1.9H26.8c-1-0.2-1.9-0.4-2.8-0.7c-1.6-0.5-3.1-1-4.5-1.8H49.3z"></path>
			<path class="st0" d="M56.7,74.7h1.2l2.4,6.1l2.5-6.1H64l-3.7,8.7L56.7,74.7z M69.6,74.7h1V83h-1V74.7z M80.8,76.2     c-0.3-0.5-0.7-0.8-1.3-0.8c-0.4,0-0.7,0.1-1,0.3c-0.3,0.3-0.4,0.5-0.4,0.8c0,0.2,0.1,0.4,0.2,0.6c0.1,0.2,0.3,0.3,0.6,0.5     s0.6,0.3,1,0.5c0.4,0.2,0.8,0.4,1.2,0.7c0.3,0.3,0.6,0.5,0.7,0.8c0.1,0.4,0.1,0.7,0.1,1c0,0.5-0.1,0.9-0.3,1.3     c-0.2,0.4-0.5,0.7-0.9,1c-0.4,0.3-0.8,0.4-1.3,0.4h-0.1c-0.4,0-0.8-0.1-1.2-0.3c-0.4-0.2-0.7-0.5-0.9-0.9     c-0.3-0.4-0.4-0.7-0.4-1.1l1-0.3c0.1,0.5,0.3,0.9,0.6,1.2c0.3,0.3,0.7,0.4,1,0.4c0.3,0,0.7-0.1,1-0.4c0.3-0.2,0.5-0.6,0.6-1     c0-0.1,0-0.2,0-0.3c0-0.4-0.1-0.8-0.5-1c-0.3-0.3-0.7-0.5-1.2-0.7c-0.5-0.2-0.9-0.4-1.2-0.5c-0.3-0.2-0.5-0.4-0.7-0.7     c-0.2-0.3-0.3-0.6-0.3-1.1c0-0.3,0.1-0.5,0.3-0.9c0.2-0.3,0.4-0.6,0.8-0.9c0.3-0.2,0.7-0.4,1.2-0.4c0.6,0,1,0.1,1.3,0.3     c0.3,0.2,0.7,0.5,1,1L80.8,76.2z M88,74.7h1V83h-1V74.7z M102.8,78.8c-0.1-1.1-0.5-2-1.1-2.5c-0.7-0.5-1.4-0.8-2.1-0.9h-0.1     c-0.5,0-0.9,0.1-1.3,0.3c-0.4,0.2-0.7,0.4-1,0.7c-0.3,0.3-0.5,0.7-0.7,1c-0.2,0.4-0.3,0.8-0.3,1.2c0,0,0,0,0,0.1     c0,0.1,0,0.1,0,0.1c0,0.4,0.1,0.8,0.2,1.2c0.1,0.4,0.3,0.7,0.7,1c0.3,0.3,0.6,0.6,1,0.7c0.4,0.2,0.9,0.3,1.5,0.3c0,0,0,0,0.1,0     c0,0,0.1,0,0.1,0c0.5,0,1-0.1,1.4-0.3c0.4-0.2,0.7-0.5,1-0.8c0.3-0.3,0.5-0.7,0.6-1c0.1-0.4,0.2-0.7,0.2-1.1V78.8z M95.1,78.7     c0.1-0.9,0.3-1.6,0.7-2.3c0.4-0.7,0.9-1.1,1.6-1.4c0.7-0.3,1.4-0.5,2.2-0.5s1.5,0.2,2.2,0.7c0.7,0.4,1.2,1,1.5,1.6     c0.4,0.7,0.5,1.3,0.5,1.9c0,0.7-0.1,1.2-0.3,1.8s-0.5,1-0.9,1.4s-0.9,0.7-1.4,0.9c-0.5,0.2-1.2,0.3-1.8,0.3h-0.2     c-0.9,0-1.6-0.2-2.2-0.7c-0.6-0.5-1.1-1-1.4-1.6c-0.3-0.7-0.5-1.3-0.5-2C95.1,78.9,95.1,78.8,95.1,78.7     C95.1,78.8,95.1,78.7,95.1,78.7z M109.6,74.2l6.3,6.6v-6.1h1v8.6l-6.2-6.3v6h-1.1V74.2z M130.9,74.7h4v1H132v2.2h2.9v1H132V83h-1     V74.7z M148.5,78.8c-0.1-1.1-0.4-2-1-2.5c-0.7-0.5-1.4-0.8-2.1-0.9h-0.2c-0.4,0-0.9,0.1-1.2,0.3c-0.4,0.2-0.7,0.4-1,0.7     s-0.5,0.7-0.7,1c-0.2,0.4-0.3,0.8-0.3,1.2c0,0,0,0,0,0.1s0,0.1,0,0.1c0,0.4,0.1,0.8,0.2,1.2c0.1,0.4,0.3,0.7,0.6,1     c0.3,0.3,0.7,0.6,1.1,0.7c0.4,0.2,0.9,0.3,1.4,0.3c0,0,0.1,0,0.1,0s0.1,0,0.1,0c0.5,0,1-0.1,1.4-0.3c0.4-0.2,0.7-0.5,1-0.8     c0.3-0.3,0.5-0.7,0.6-1c0.1-0.4,0.2-0.7,0.2-1.1V78.8z M140.8,78.7c0.1-0.9,0.3-1.6,0.7-2.3c0.4-0.7,0.9-1.1,1.6-1.4     c0.7-0.3,1.4-0.5,2.2-0.5s1.5,0.2,2.2,0.7c0.7,0.4,1.2,1,1.5,1.6c0.4,0.7,0.6,1.3,0.6,1.9c0,0.7-0.1,1.2-0.3,1.8     c-0.2,0.5-0.5,1-0.9,1.4s-0.9,0.7-1.4,0.9c-0.6,0.2-1.2,0.3-1.8,0.3h-0.2c-0.9,0-1.6-0.2-2.2-0.7c-0.6-0.5-1.1-1-1.4-1.6     c-0.3-0.7-0.5-1.3-0.5-2C140.8,78.9,140.8,78.8,140.8,78.7C140.8,78.8,140.8,78.7,140.8,78.7z M155.5,74.7h2.3     c0.5,0,0.9,0.2,1.2,0.4c0.3,0.2,0.6,0.5,0.8,0.9c0.2,0.3,0.3,0.7,0.3,1c0,0.7-0.2,1.2-0.6,1.7c-0.4,0.4-0.9,0.7-1.5,0.8l2.7,3.6     h-1.3l-2.4-3.5h-0.4V83h-1V74.7z M156.5,75.7v3.1c0.9,0,1.5-0.1,1.9-0.3c0.4-0.2,0.6-0.6,0.6-1.1v-0.1c0-0.4-0.2-0.8-0.5-1     c-0.3-0.3-0.9-0.4-1.7-0.4H156.5z M174,74.7h4v1H175v2.2h2.9v1H175V83h-1V74.7z M189.2,74.7h1v5.2c0,0.6-0.1,1.2-0.4,1.7     c-0.3,0.5-0.6,0.9-1.1,1.2c-0.5,0.3-1,0.4-1.6,0.4H187c-1-0.1-1.7-0.4-2.2-1c-0.5-0.6-0.7-1.3-0.8-2v-5.4h1v5     c0,0.7,0.2,1.2,0.5,1.7c0.3,0.5,0.9,0.8,1.5,0.8c0.4,0,0.8-0.1,1.1-0.3c0.3-0.2,0.5-0.5,0.7-0.8c0.2-0.4,0.3-0.8,0.3-1.3V74.7z      M197.7,75.7h-2v-1h5v1h-1.9V83h-1.2V75.7z M211.6,74.7h1v5.2c0,0.6-0.1,1.2-0.4,1.7c-0.3,0.5-0.6,0.9-1.1,1.2     c-0.5,0.3-1,0.4-1.6,0.4h-0.1c-1-0.1-1.7-0.4-2.2-1c-0.5-0.6-0.7-1.3-0.8-2v-5.4h1v5c0,0.7,0.1,1.2,0.5,1.7     c0.3,0.5,0.8,0.8,1.5,0.8c0.4,0,0.8-0.1,1.1-0.3c0.3-0.2,0.6-0.5,0.7-0.8c0.2-0.4,0.3-0.8,0.3-1.3V74.7z M219,74.7h2.3     c0.5,0,0.9,0.2,1.2,0.4c0.3,0.2,0.6,0.5,0.8,0.9c0.2,0.3,0.3,0.7,0.3,1c0,0.7-0.2,1.2-0.6,1.7c-0.4,0.4-0.9,0.7-1.5,0.8l2.7,3.6     h-1.3l-2.4-3.5h-0.4V83h-1V74.7z M220.1,75.7v3.1c0.9,0,1.5-0.1,1.9-0.3c0.4-0.2,0.6-0.6,0.6-1.1v-0.1c0-0.4-0.2-0.8-0.5-1     c-0.3-0.3-0.9-0.4-1.7-0.4H220.1z M230,74.7h4.5v1h-3.4v2.2h3.3v1h-3.3V82h3.4v1H230V74.7z"></path>
		</g>
		<text transform="matrix(1 0 0 1 274.1115 15.9346)" class="st1 st2 st3">®</text>
	</g>
</g>
</svg>
